<svg width="164" height="106" viewBox="0 0 164 106" fill="none" xmlns="http://www.w3.org/2000/svg">
<path d="M56 18L88.909 73.5H23.091L56 18Z" fill="#1F1F1F"/>
<path d="M100 74L132.909 18.5H67.091L100 74Z" fill="#3F51B5"/>
<path d="M6.34 101.1C5.3 101.1 4.36667 100.873 3.54 100.42C2.72667 99.9533 2.08667 99.32 1.62 98.52C1.15333 97.7067 0.92 96.78 0.92 95.74C0.92 94.6867 1.15333 93.76 1.62 92.96C2.08667 92.16 2.72667 91.5333 3.54 91.08C4.36667 90.6267 5.3 90.4 6.34 90.4C7.23333 90.4 8.04 90.5733 8.76 90.92C9.48 91.2667 10.0467 91.7867 10.46 92.48L9.4 93.2C9.04 92.6667 8.59333 92.2733 8.06 92.02C7.52667 91.7667 6.94667 91.64 6.32 91.64C5.57333 91.64 4.9 91.8133 4.3 92.16C3.7 92.4933 3.22667 92.9667 2.88 93.58C2.53333 94.1933 2.36 94.9133 2.36 95.74C2.36 96.5667 2.53333 97.2867 2.88 97.9C3.22667 98.5133 3.7 98.9933 4.3 99.34C4.9 99.6733 5.57333 99.84 6.32 99.84C6.94667 99.84 7.52667 99.7133 8.06 99.46C8.59333 99.2067 9.04 98.82 9.4 98.3L10.46 99.02C10.0467 99.7 9.48 100.22 8.76 100.58C8.04 100.927 7.23333 101.1 6.34 101.1ZM17.5895 101.1C16.6962 101.1 15.9162 100.933 15.2495 100.6C14.5829 100.267 14.0629 99.7667 13.6895 99.1C13.3295 98.4333 13.1495 97.6 13.1495 96.6V90.5H14.5695V96.44C14.5695 97.56 14.8429 98.4067 15.3895 98.98C15.9495 99.54 16.7295 99.82 17.7295 99.82C18.4629 99.82 19.0962 99.6733 19.6295 99.38C20.1762 99.0733 20.5895 98.6333 20.8695 98.06C21.1629 97.4867 21.3095 96.8 21.3095 96V90.5H22.7295V101H21.3695V98.12L21.5895 98.64C21.2562 99.4133 20.7362 100.02 20.0295 100.46C19.3362 100.887 18.5229 101.1 17.5895 101.1ZM26.687 101V90.5H28.047V93.36L27.907 92.86C28.2004 92.06 28.6937 91.4533 29.387 91.04C30.0804 90.6133 30.9404 90.4 31.967 90.4V91.78C31.9137 91.78 31.8604 91.78 31.807 91.78C31.7537 91.7667 31.7004 91.76 31.647 91.76C30.5404 91.76 29.6737 92.1 29.047 92.78C28.4204 93.4467 28.107 94.4 28.107 95.64V101H26.687ZM37.7073 101L33.0473 90.5H34.5273L38.8073 100.24H38.1073L42.4473 90.5H43.8473L39.1673 101H37.7073ZM50.0142 101.1C48.9209 101.1 47.9609 100.873 47.1342 100.42C46.3076 99.9533 45.6609 99.32 45.1942 98.52C44.7276 97.7067 44.4942 96.78 44.4942 95.74C44.4942 94.7 44.7142 93.78 45.1542 92.98C45.6076 92.18 46.2209 91.5533 46.9942 91.1C47.7809 90.6333 48.6609 90.4 49.6342 90.4C50.6209 90.4 51.4942 90.6267 52.2542 91.08C53.0276 91.52 53.6342 92.1467 54.0742 92.96C54.5142 93.76 54.7342 94.6867 54.7342 95.74C54.7342 95.8067 54.7276 95.88 54.7142 95.96C54.7142 96.0267 54.7142 96.1 54.7142 96.18H45.5742V95.12H53.9542L53.3942 95.54C53.3942 94.78 53.2276 94.1067 52.8942 93.52C52.5742 92.92 52.1342 92.4533 51.5742 92.12C51.0142 91.7867 50.3676 91.62 49.6342 91.62C48.9142 91.62 48.2676 91.7867 47.6942 92.12C47.1209 92.4533 46.6742 92.92 46.3542 93.52C46.0342 94.12 45.8742 94.8067 45.8742 95.58V95.8C45.8742 96.6 46.0476 97.3067 46.3942 97.92C46.7542 98.52 47.2476 98.9933 47.8742 99.34C48.5142 99.6733 49.2409 99.84 50.0542 99.84C50.6942 99.84 51.2876 99.7267 51.8342 99.5C52.3942 99.2733 52.8742 98.9267 53.2742 98.46L54.0742 99.38C53.6076 99.94 53.0209 100.367 52.3142 100.66C51.6209 100.953 50.8542 101.1 50.0142 101.1Z" fill="#1F1F1F"/>
<path d="M70.104 101.24C68.792 101.24 67.584 101.032 66.48 100.616C65.392 100.184 64.44 99.584 63.624 98.816C62.808 98.032 62.176 97.112 61.728 96.056C61.28 95 61.056 93.848 61.056 92.6C61.056 91.352 61.28 90.2 61.728 89.144C62.176 88.088 62.808 87.176 63.624 86.408C64.456 85.624 65.424 85.024 66.528 84.608C67.632 84.176 68.84 83.96 70.152 83.96C71.576 83.96 72.856 84.192 73.992 84.656C75.144 85.12 76.112 85.8 76.896 86.696L74.928 88.616C74.272 87.96 73.56 87.48 72.792 87.176C72.04 86.856 71.208 86.696 70.296 86.696C69.416 86.696 68.6 86.84 67.848 87.128C67.096 87.416 66.448 87.824 65.904 88.352C65.36 88.88 64.936 89.504 64.632 90.224C64.344 90.944 64.2 91.736 64.2 92.6C64.2 93.448 64.344 94.232 64.632 94.952C64.936 95.672 65.36 96.304 65.904 96.848C66.448 97.376 67.088 97.784 67.824 98.072C68.56 98.36 69.376 98.504 70.272 98.504C71.104 98.504 71.904 98.376 72.672 98.12C73.456 97.848 74.2 97.4 74.904 96.776L76.68 99.104C75.8 99.808 74.776 100.344 73.608 100.712C72.456 101.064 71.288 101.24 70.104 101.24ZM73.728 98.696V92.408H76.68V99.104L73.728 98.696ZM88.4031 101V98.408L88.2351 97.856V93.32C88.2351 92.44 87.9711 91.76 87.4431 91.28C86.9151 90.784 86.1151 90.536 85.0431 90.536C84.3231 90.536 83.6111 90.648 82.9071 90.872C82.2191 91.096 81.6351 91.408 81.1551 91.808L79.9791 89.624C80.6671 89.096 81.4831 88.704 82.4271 88.448C83.3871 88.176 84.3791 88.04 85.4031 88.04C87.2591 88.04 88.6911 88.488 89.6991 89.384C90.7231 90.264 91.2351 91.632 91.2351 93.488V101H88.4031ZM84.3711 101.168C83.4111 101.168 82.5711 101.008 81.8511 100.688C81.1311 100.352 80.5711 99.896 80.1711 99.32C79.7871 98.728 79.5951 98.064 79.5951 97.328C79.5951 96.608 79.7631 95.96 80.0991 95.384C80.4511 94.808 81.0191 94.352 81.8031 94.016C82.5871 93.68 83.6271 93.512 84.9231 93.512H88.6431V95.504H85.1391C84.1151 95.504 83.4271 95.672 83.0751 96.008C82.7231 96.328 82.5471 96.728 82.5471 97.208C82.5471 97.752 82.7631 98.184 83.1951 98.504C83.6271 98.824 84.2271 98.984 84.9951 98.984C85.7311 98.984 86.3871 98.816 86.9631 98.48C87.5551 98.144 87.9791 97.648 88.2351 96.992L88.7391 98.792C88.4511 99.544 87.9311 100.128 87.1791 100.544C86.4431 100.96 85.5071 101.168 84.3711 101.168ZM100.533 101.168C99.3006 101.168 98.1886 100.896 97.1966 100.352C96.2206 99.792 95.4526 99.024 94.8926 98.048C94.3326 97.072 94.0526 95.92 94.0526 94.592C94.0526 93.264 94.3326 92.112 94.8926 91.136C95.4526 90.16 96.2206 89.4 97.1966 88.856C98.1886 88.312 99.3006 88.04 100.533 88.04C101.605 88.04 102.565 88.28 103.413 88.76C104.261 89.224 104.933 89.936 105.429 90.896C105.925 91.856 106.173 93.088 106.173 94.592C106.173 96.08 105.933 97.312 105.453 98.288C104.973 99.248 104.309 99.968 103.461 100.448C102.613 100.928 101.637 101.168 100.533 101.168ZM100.893 98.6C101.613 98.6 102.253 98.44 102.813 98.12C103.389 97.8 103.845 97.336 104.181 96.728C104.533 96.12 104.709 95.408 104.709 94.592C104.709 93.76 104.533 93.048 104.181 92.456C103.845 91.848 103.389 91.384 102.813 91.064C102.253 90.744 101.613 90.584 100.893 90.584C100.173 90.584 99.5246 90.744 98.9486 91.064C98.3886 91.384 97.9326 91.848 97.5806 92.456C97.2446 93.048 97.0766 93.76 97.0766 94.592C97.0766 95.408 97.2446 96.12 97.5806 96.728C97.9326 97.336 98.3886 97.8 98.9486 98.12C99.5246 98.44 100.173 98.6 100.893 98.6ZM104.781 101V97.976L104.901 94.568L104.661 91.16V83.192H107.637V101H104.781ZM117.393 105.824C116.209 105.824 115.049 105.664 113.913 105.344C112.793 105.04 111.873 104.592 111.153 104L112.497 101.744C113.057 102.208 113.761 102.576 114.609 102.848C115.473 103.136 116.345 103.28 117.225 103.28C118.633 103.28 119.665 102.952 120.321 102.296C120.977 101.656 121.305 100.688 121.305 99.392V97.112L121.545 94.208L121.449 91.304V88.184H124.305V99.056C124.305 101.376 123.713 103.08 122.529 104.168C121.345 105.272 119.633 105.824 117.393 105.824ZM117.009 100.424C115.793 100.424 114.689 100.168 113.697 99.656C112.721 99.128 111.945 98.4 111.369 97.472C110.809 96.544 110.529 95.456 110.529 94.208C110.529 92.976 110.809 91.896 111.369 90.968C111.945 90.04 112.721 89.32 113.697 88.808C114.689 88.296 115.793 88.04 117.009 88.04C118.097 88.04 119.073 88.256 119.937 88.688C120.801 89.12 121.489 89.792 122.001 90.704C122.529 91.616 122.793 92.784 122.793 94.208C122.793 95.632 122.529 96.808 122.001 97.736C121.489 98.648 120.801 99.328 119.937 99.776C119.073 100.208 118.097 100.424 117.009 100.424ZM117.465 97.88C118.217 97.88 118.889 97.728 119.481 97.424C120.073 97.104 120.529 96.672 120.849 96.128C121.185 95.568 121.353 94.928 121.353 94.208C121.353 93.488 121.185 92.856 120.849 92.312C120.529 91.752 120.073 91.328 119.481 91.04C118.889 90.736 118.217 90.584 117.465 90.584C116.713 90.584 116.033 90.736 115.425 91.04C114.833 91.328 114.369 91.752 114.033 92.312C113.713 92.856 113.553 93.488 113.553 94.208C113.553 94.928 113.713 95.568 114.033 96.128C114.369 96.672 114.833 97.104 115.425 97.424C116.033 97.728 116.713 97.88 117.465 97.88ZM134.273 101.168C132.849 101.168 131.601 100.888 130.529 100.328C129.473 99.752 128.649 98.968 128.057 97.976C127.481 96.984 127.193 95.856 127.193 94.592C127.193 93.312 127.473 92.184 128.033 91.208C128.609 90.216 129.393 89.44 130.385 88.88C131.393 88.32 132.537 88.04 133.817 88.04C135.065 88.04 136.177 88.312 137.153 88.856C138.129 89.4 138.897 90.168 139.457 91.16C140.017 92.152 140.297 93.32 140.297 94.664C140.297 94.792 140.289 94.936 140.273 95.096C140.273 95.256 140.265 95.408 140.249 95.552H129.569V93.56H138.665L137.489 94.184C137.505 93.448 137.353 92.8 137.033 92.24C136.713 91.68 136.273 91.24 135.713 90.92C135.169 90.6 134.537 90.44 133.817 90.44C133.081 90.44 132.433 90.6 131.873 90.92C131.329 91.24 130.897 91.688 130.577 92.264C130.273 92.824 130.121 93.488 130.121 94.256V94.736C130.121 95.504 130.297 96.184 130.649 96.776C131.001 97.368 131.497 97.824 132.137 98.144C132.777 98.464 133.513 98.624 134.345 98.624C135.065 98.624 135.713 98.512 136.289 98.288C136.865 98.064 137.377 97.712 137.825 97.232L139.433 99.08C138.857 99.752 138.129 100.272 137.249 100.64C136.385 100.992 135.393 101.168 134.273 101.168ZM148.003 101.168C146.595 101.168 145.507 100.808 144.739 100.088C143.971 99.352 143.587 98.272 143.587 96.848V85.352H146.587V96.776C146.587 97.384 146.739 97.856 147.043 98.192C147.363 98.528 147.803 98.696 148.363 98.696C149.035 98.696 149.595 98.52 150.043 98.168L150.883 100.304C150.531 100.592 150.099 100.808 149.587 100.952C149.075 101.096 148.547 101.168 148.003 101.168ZM141.475 90.68V88.28H150.019V90.68H141.475ZM157.311 101.168C156.239 101.168 155.207 101.032 154.215 100.76C153.239 100.472 152.463 100.128 151.887 99.728L153.039 97.448C153.615 97.816 154.303 98.12 155.103 98.36C155.903 98.6 156.703 98.72 157.503 98.72C158.447 98.72 159.127 98.592 159.543 98.336C159.975 98.08 160.191 97.736 160.191 97.304C160.191 96.952 160.047 96.688 159.759 96.512C159.471 96.32 159.095 96.176 158.631 96.08C158.167 95.984 157.647 95.896 157.071 95.816C156.511 95.736 155.943 95.632 155.367 95.504C154.807 95.36 154.295 95.16 153.831 94.904C153.367 94.632 152.991 94.272 152.703 93.824C152.415 93.376 152.271 92.784 152.271 92.048C152.271 91.232 152.503 90.528 152.967 89.936C153.431 89.328 154.079 88.864 154.911 88.544C155.759 88.208 156.759 88.04 157.911 88.04C158.775 88.04 159.647 88.136 160.527 88.328C161.407 88.52 162.135 88.792 162.711 89.144L161.559 91.424C160.951 91.056 160.335 90.808 159.711 90.68C159.103 90.536 158.495 90.464 157.887 90.464C156.975 90.464 156.295 90.6 155.847 90.872C155.415 91.144 155.199 91.488 155.199 91.904C155.199 92.288 155.343 92.576 155.631 92.768C155.919 92.96 156.295 93.112 156.759 93.224C157.223 93.336 157.735 93.432 158.295 93.512C158.871 93.576 159.439 93.68 159.999 93.824C160.559 93.968 161.071 94.168 161.535 94.424C162.015 94.664 162.399 95.008 162.687 95.456C162.975 95.904 163.119 96.488 163.119 97.208C163.119 98.008 162.879 98.704 162.399 99.296C161.935 99.888 161.271 100.352 160.407 100.688C159.543 101.008 158.511 101.168 157.311 101.168Z" fill="#3F51B5"/>
</svg>
